# xmcd CD database file
#
# Track frame offsets:
#	150
#	14420
#	27540
#	39905
#	54605
#	67960
#	80550
#	93465
#	106890
#	120430
#
# Disc length: 1755 seconds
#
# Revision: 1
# Processed by: cddbd v1.5.1PL0 Copyright (c) Steve Scherf et al.
# Submitted via: CDex 1.51
#
DISCID=7906d90a
DTITLE=Muddy Waters - Baby Please Don't Go
DYEAR=1995
DGENRE=Blues
TTITLE0=Walkin' Thru The Park
TTITLE1=Can't Lose What You Ain't Never Had
TTITLE2=I Can't Be Satisfied
TTITLE3=Baby Please Don't Go
TTITLE4=I Got A Rich Man's Woman
TTITLE5=Mean Mistreater
TTITLE6=Forty Days And Forty Nights
TTITLE7=Rollin' And Tumblin'
TTITLE8=I'm Ready
TTITLE9=Goin' Home
EXTD=YEAR: 1995
EXTT0=
EXTT1=
EXTT2=
EXTT3=
EXTT4=
EXTT5=
EXTT6=
EXTT7=
EXTT8=
EXTT9=
PLAYORDER=
